<?xml version="1.0" encoding="UTF-8"?>
<svg version="1.1" xmlns="http://www.w3.org/2000/svg" width="157" height="142">
<path d="M0 0 C51.81 0 103.62 0 157 0 C157 46.86 157 93.72 157 142 C105.19 142 53.38 142 0 142 C0 95.14 0 48.28 0 0 Z " fill="#F2F4F3" transform="translate(0,0)"/>
<path d="M0 0 C1.17433594 -0.02578125 2.34867187 -0.0515625 3.55859375 -0.078125 C4.54988281 0.03015625 5.54117188 0.1384375 6.5625 0.25 C9.12866632 4.09924948 9.11347676 6.6849304 9.5625 11.25 C12.93785924 11.98377375 16.10546835 12.48841598 19.5625 12.25 C21.4901657 10.87132688 22.76318304 9.38499471 24.26953125 7.56640625 C25.5625 6.25 25.5625 6.25 28.0625 6.1875 C35.7798913 9.4673913 35.7798913 9.4673913 38.5625 12.25 C38.49913824 18.2060052 35.22077194 22.38029228 32 27.125 C31.47986328 27.90875 30.95972656 28.6925 30.42382812 29.5 C29.14575283 31.42297567 27.85858737 33.33913869 26.5625 35.25 C24.57984766 34.26099182 22.6000235 33.26944538 20.6328125 32.25 C19.99085937 31.92 19.34890625 31.59 18.6875 31.25 C18.05070312 30.92 17.41390625 30.59 16.7578125 30.25 C7.35409975 25.96645825 -5.17876089 25.20880124 -15 28.8125 C-25.83328179 34.14523424 -32.68336939 42.24043438 -37.4375 53.25 C-40.07001854 63.70643727 -39.43522516 75.12678063 -34.1484375 84.546875 C-29.04847321 92.67409082 -23.35446482 98.56082436 -14.4375 102.25 C-13.71691406 102.60320312 -12.99632812 102.95640625 -12.25390625 103.3203125 C-3.60235818 106.17616332 7.51141914 105.72841514 15.74829102 101.88842773 C19.861928 99.73224202 23.31035569 97.55295906 26.5625 94.25 C27.2225 94.25 27.8825 94.25 28.5625 94.25 C28.84351562 93.66347656 29.12453125 93.07695313 29.4140625 92.47265625 C30.47294442 90.42332356 31.64460493 88.5939026 32.9375 86.6875 C39.56524964 75.93092497 40.2019177 65.84099253 40.3125 53.5625 C40.34071964 51.97457772 40.37065522 50.38668497 40.40234375 48.79882812 C40.47549128 44.94927287 40.52549548 41.10006535 40.5625 37.25 C35.6125 37.745 35.6125 37.745 30.5625 38.25 C35.2811458 28.37033537 40.5471404 18.70280522 47.5625 10.25 C51.37567921 15.76789463 54.98025399 21.41668955 58.5 27.125 C59.12056274 28.10641968 59.12056274 28.10641968 59.75366211 29.10766602 C60.7702178 30.77542232 61.67569587 32.50977731 62.5625 34.25 C62.2325 35.24 61.9025 36.23 61.5625 37.25 C59.5825 37.25 57.6025 37.25 55.5625 37.25 C55.2325 43.85 54.9025 50.45 54.5625 57.25 C57.13411458 57.47786458 59.70572917 57.70572917 62.27734375 57.93359375 C64.5625 58.25 64.5625 58.25 65.5625 59.25 C65.63508946 61.43639453 65.64623783 63.62500389 65.625 65.8125 C65.61597656 67.01003906 65.60695312 68.20757812 65.59765625 69.44140625 C65.58025391 70.83166016 65.58025391 70.83166016 65.5625 72.25 C61.93227984 73.72187802 58.28797711 75.03705396 54.5625 76.25 C53.81785354 79.29628097 53.32579236 82.11105082 53.5625 85.25 C54.94844173 87.11728676 56.47405947 88.42454724 58.23828125 89.9296875 C59.5625 91.25 59.5625 91.25 59.75 93.625 C58.04197757 97.40062852 55.87193238 100.81567805 53.5625 104.25 C52.74265625 104.05921875 51.9228125 103.8684375 51.078125 103.671875 C50.00046875 103.45015625 48.9228125 103.2284375 47.8125 103 C46.74515625 102.76796875 45.6778125 102.5359375 44.578125 102.296875 C41.47724647 101.94474459 41.47724647 101.94474459 39.19140625 103.9921875 C36.31868753 107.97403743 37.38718546 112.04471254 38.0625 116.6875 C38.2275 117.533125 38.3925 118.37875 38.5625 119.25 C36.98902824 120.285969 35.40328454 121.30331732 33.8125 122.3125 C32.93078125 122.88097656 32.0490625 123.44945312 31.140625 124.03515625 C28.5625 125.25 28.5625 125.25 26.3671875 125.09765625 C24.5625 124.25 24.5625 124.25 22.4375 121.625 C19.85644803 119.00559478 19.85644803 119.00559478 17.01953125 119.14453125 C14.50324106 119.41071145 12.04499291 119.76314217 9.5625 120.25 C9.418125 121.3225 9.27375 122.395 9.125 123.5 C8.5625 127.25 8.5625 127.25 7.5625 131.25 C2.9425 131.25 -1.6775 131.25 -6.4375 131.25 C-9.4375 123.625 -9.4375 123.625 -9.4375 120.25 C-12.81285924 119.51622625 -15.98046835 119.01158402 -19.4375 119.25 C-21.36199929 120.62640849 -22.63939274 122.11782587 -24.15234375 123.92578125 C-25.4375 125.25 -25.4375 125.25 -27.8125 125.4375 C-31.58812852 123.72947757 -35.00317805 121.55943238 -38.4375 119.25 C-37.5093232 112.48756906 -37.5093232 112.48756906 -36.625 109.5625 C-36.17456232 107.11977672 -36.17456232 107.11977672 -38.00390625 105.08984375 C-41.3034496 102.59532542 -43.14179262 103.01451511 -47.1875 103.5 C-48.94320312 103.69335938 -48.94320312 103.69335938 -50.734375 103.890625 C-51.62640625 104.00921875 -52.5184375 104.1278125 -53.4375 104.25 C-54.473469 102.67652824 -55.49081732 101.09078454 -56.5 99.5 C-57.06847656 98.61828125 -57.63695312 97.7365625 -58.22265625 96.828125 C-59.4375 94.25 -59.4375 94.25 -59.28515625 92.0546875 C-58.4375 90.25 -58.4375 90.25 -55.8125 88.125 C-53.19309478 85.54394803 -53.19309478 85.54394803 -53.33203125 82.70703125 C-53.59821145 80.19074106 -53.95064217 77.73249291 -54.4375 75.25 C-55.14777344 75.11722656 -55.85804687 74.98445313 -56.58984375 74.84765625 C-57.50894531 74.67105469 -58.42804687 74.49445313 -59.375 74.3125 C-60.29152344 74.13847656 -61.20804688 73.96445313 -62.15234375 73.78515625 C-64.4375 73.25 -64.4375 73.25 -65.4375 72.25 C-65.51008946 70.06360547 -65.52123783 67.87499611 -65.5 65.6875 C-65.49097656 64.48996094 -65.48195313 63.29242188 -65.47265625 62.05859375 C-65.46105469 61.13175781 -65.44945313 60.20492187 -65.4375 59.25 C-61.7696148 57.28810791 -58.56501449 55.85698743 -54.4375 55.25 C-53.6766091 52.19951921 -53.20126045 49.39650974 -53.4375 46.25 C-54.84324726 44.20900252 -56.44065347 42.62225961 -58.18359375 40.8671875 C-59.4375 39.25 -59.4375 39.25 -59.0625 36.1875 C-57.34226209 33.07783916 -55.50311727 30.14186418 -53.4375 27.25 C-52.62925781 27.45238281 -51.82101563 27.65476562 -50.98828125 27.86328125 C-44.38081356 29.40584389 -44.38081356 29.40584389 -38.0625 27.625 C-35.53083249 22.36692132 -37.05983598 17.75188114 -38.4375 12.25 C-36.86402824 11.214031 -35.27828454 10.19668268 -33.6875 9.1875 C-32.80578125 8.61902344 -31.9240625 8.05054688 -31.015625 7.46484375 C-28.4375 6.25 -28.4375 6.25 -26.2421875 6.40234375 C-24.4375 7.25 -24.4375 7.25 -22.3125 9.875 C-19.73144803 12.49440522 -19.73144803 12.49440522 -16.89453125 12.35546875 C-14.37824106 12.08928855 -11.91999291 11.73685783 -9.4375 11.25 C-9.30472656 10.53972656 -9.17195313 9.82945313 -9.03515625 9.09765625 C-8.85855469 8.17855469 -8.68195313 7.25945313 -8.5 6.3125 C-8.32597656 5.39597656 -8.15195313 4.47945312 -7.97265625 3.53515625 C-6.91333645 -0.9882166 -4.22426863 0.0555216 0 0 Z " fill="#257D8C" transform="translate(78.4375,4.75)"/>
<path d="M0 0 C3.63 1.98 7.26 3.96 11 6 C11 9.63 11 13.26 11 17 C12.32 17.33 13.64 17.66 15 18 C15.33 15.36 15.66 12.72 16 10 C20.33791038 11.34268655 23.86425357 12.93212679 28 15 C28 25.89 28 36.78 28 48 C21.24513915 45.74837972 21.24513915 45.74837972 18.125 43.9765625 C17.11179687 43.40421875 17.11179687 43.40421875 16.078125 42.8203125 C15.39234375 42.42585938 14.7065625 42.03140625 14 41.625 C13.31421875 41.23828125 12.6284375 40.8515625 11.921875 40.453125 C9.93312733 39.32211965 7.95528584 38.18813353 6 37 C4.94216309 36.44973145 3.88432617 35.89946289 2.79443359 35.33251953 C0 33 0 33 -0.68115234 29.51660156 C-0.68020828 28.1409102 -0.64663512 26.76497699 -0.5859375 25.390625 C-0.57744781 24.66381531 -0.56895813 23.93700562 -0.56021118 23.18817139 C-0.52670601 20.87391879 -0.45144932 18.56319295 -0.375 16.25 C-0.34489589 14.67843587 -0.31752083 13.10681692 -0.29296875 11.53515625 C-0.2269265 7.68875187 -0.12343921 3.84497309 0 0 Z " fill="#16597C" transform="translate(49,55)"/>
<path d="M0 0 C0.66 0 1.32 0 2 0 C2 10.89 2 21.78 2 33 C-3.445 35.97 -3.445 35.97 -9 39 C-9.08074203 36.37438891 -9.1403623 33.75124324 -9.1875 31.125 C-9.21263672 30.37863281 -9.23777344 29.63226563 -9.26367188 28.86328125 C-9.29296875 26.6953125 -9.29296875 26.6953125 -9 23 C-8.01 22.34 -7.02 21.68 -6 21 C-6.78375 20.030625 -7.5675 19.06125 -8.375 18.0625 C-8.81585938 17.51722656 -9.25671875 16.97195312 -9.7109375 16.41015625 C-10.9666391 14.86733563 -10.9666391 14.86733563 -13 14 C-13.12375 15.2375 -13.12375 15.2375 -13.25 16.5 C-14.16447269 20.76753921 -15.92223178 24.19236894 -18 28 C-17.01 28 -16.02 28 -15 28 C-15 32.95 -15 37.9 -15 43 C-23.75 48 -23.75 48 -26 48 C-26 37.11 -26 26.22 -26 15 C-13.5625 8.0625 -13.5625 8.0625 -9.63500977 5.87524414 C-8.62237061 5.30926514 -7.60973145 4.74328613 -6.56640625 4.16015625 C-5.52427979 3.57886963 -4.48215332 2.99758301 -3.40844727 2.39868164 C-1.12440597 1.20986135 -1.12440597 1.20986135 0 0 Z " fill="#3C9178" transform="translate(106,55)"/>
<path d="M0 0 C4.01329772 1.33776591 7.31755659 3.58730232 10.8125 5.9375 C6.85802587 10.30659574 1.49803108 12.79665608 -3.5625 15.6875 C-4.6040625 16.30238281 -5.645625 16.91726562 -6.71875 17.55078125 C-8.23082031 18.41509766 -8.23082031 18.41509766 -9.7734375 19.296875 C-10.6917334 19.82764648 -11.6100293 20.35841797 -12.55615234 20.90527344 C-16.37776655 22.40441844 -18.7746813 21.55144739 -22.42578125 19.96484375 C-23.11027344 19.60519531 -23.79476562 19.24554688 -24.5 18.875 C-25.19738281 18.51277344 -25.89476563 18.15054688 -26.61328125 17.77734375 C-27.13277344 17.50019531 -27.65226562 17.22304688 -28.1875 16.9375 C-28.1875 16.2775 -28.1875 15.6175 -28.1875 14.9375 C-27.50647217 14.55416504 -26.82544434 14.17083008 -26.1237793 13.77587891 C-23.04017067 12.03929406 -19.95757527 10.30091842 -16.875 8.5625 C-15.80314453 7.95921875 -14.73128906 7.3559375 -13.62695312 6.734375 C-12.59892578 6.15429688 -11.57089844 5.57421875 -10.51171875 4.9765625 C-9.56385498 4.44240723 -8.61599121 3.90825195 -7.6394043 3.35791016 C-1.75637393 -0.05018211 -1.75637393 -0.05018211 0 0 Z " fill="#4FA57C" transform="translate(95.1875,46.0625)"/>
<path d="M0 0 C2.41043016 1.21991283 4.67680248 2.61501686 7 4 C3.21972111 8.43205111 -1.00191629 10.8351114 -6.15234375 13.50390625 C-8.78020147 14.88452286 -11.28061181 16.39094901 -13.8125 17.9375 C-16.67111084 19.51431381 -17.84235884 19.996909 -21.1875 20.0625 C-24.5091243 18.80766415 -27.14957234 17.10388708 -30 15 C-26.03936504 10.61592161 -20.64010642 8.1381798 -15.5625 5.25 C-14.51255859 4.63511719 -13.46261719 4.02023438 -12.38085938 3.38671875 C-10.86395508 2.52240234 -10.86395508 2.52240234 -9.31640625 1.640625 C-8.39287354 1.10985352 -7.46934082 0.57908203 -6.51782227 0.03222656 C-3.72592092 -1.11236365 -2.74541459 -1.11458659 0 0 Z " fill="#2D8897" transform="translate(81,38)"/>
<path d="M0 0 C1.41456928 4.24370785 -0.21946712 7.1199221 -2 11 C-5.00873538 16.3488629 -9.15072997 21.21630513 -14 25 C-16.75390625 25.73046875 -16.75390625 25.73046875 -19 26 C-19 26.66 -19 27.32 -19 28 C-20.29233607 29.37310707 -21.62437146 30.71034824 -23 32 C-21.35 31.67 -19.7 31.34 -18 31 C-20 34 -20 34 -22.25 34.73046875 C-36.71180134 37.13392153 -49.06279674 36.35259708 -62 29 C-61.34 28.67 -60.68 28.34 -60 28 C-58.85660156 28.46664062 -57.71320312 28.93328125 -56.53515625 29.4140625 C-51.49015324 31.41111402 -46.80871743 31.44400922 -41.4375 31.375 C-40.53064453 31.38660156 -39.62378906 31.39820312 -38.68945312 31.41015625 C-33.02684865 31.38551838 -29.03518261 30.61083543 -24 28 C-24.66 27.34 -25.32 26.68 -26 26 C-25.16855469 25.60167969 -24.33710937 25.20335938 -23.48046875 24.79296875 C-21.85044922 23.99826172 -21.85044922 23.99826172 -20.1875 23.1875 C-19.10855469 22.66542969 -18.02960938 22.14335938 -16.91796875 21.60546875 C-14.40280413 20.22162315 -12.93648211 19.03422253 -11 17 C-10.34 17 -9.68 17 -9 17 C-8.7215625 16.42121094 -8.443125 15.84242187 -8.15625 15.24609375 C-7.04599126 13.08934113 -5.82053127 11.09563504 -4.5 9.0625 C-2.6398131 6.1268068 -1.13537479 3.30290849 0 0 Z " fill="#4DA369" transform="translate(116,82)"/>
<path d="M0 0 C1.8828125 1.66796875 1.8828125 1.66796875 3 3 C2.01 4.65 1.02 6.3 0 8 C-1.98346337 7.01267601 -3.96249977 6.01943332 -5.9296875 5 C-6.57164063 4.67 -7.21359375 4.34 -7.875 4 C-8.51179688 3.67 -9.14859375 3.34 -9.8046875 3 C-16.01864747 0.16944172 -21.14623408 -0.25673789 -27.875 -0.125 C-28.75414063 -0.11597656 -29.63328125 -0.10695313 -30.5390625 -0.09765625 C-32.6928271 -0.07424577 -34.84645014 -0.0383801 -37 0 C-37 -0.99 -37 -1.98 -37 -3 C-24.93189109 -7.69524862 -11.35413114 -5.70923025 0 0 Z " fill="#56AC7A" transform="translate(105,32)"/>
<path d="M0 0 C1.79232337 0.30871122 3.58384321 0.62209064 5.375 0.9375 C6.87160156 1.19853516 6.87160156 1.19853516 8.3984375 1.46484375 C11 2 11 2 13 3 C14.81341842 3.08471364 16.62994161 3.10721083 18.4453125 3.09765625 C19.52167969 3.09443359 20.59804687 3.09121094 21.70703125 3.08789062 C23.39892578 3.07532227 23.39892578 3.07532227 25.125 3.0625 C26.26066406 3.05798828 27.39632812 3.05347656 28.56640625 3.04882812 C31.37765638 3.03701615 34.1888023 3.02054507 37 3 C33.13856177 7.01743511 29.80365211 8.07664278 24.26953125 8.3359375 C22.45070954 8.36519558 20.63155523 8.3775506 18.8125 8.375 C17.405448 8.37693359 17.405448 8.37693359 15.9699707 8.37890625 C9.35333739 8.27758132 3.76717374 7.48206716 -2 4 C-1.34 2.68 -0.68 1.36 0 0 Z " fill="#1D5C7C" transform="translate(56,106)"/>
<path d="M0 0 C2.15234375 0.91796875 2.15234375 0.91796875 4 2 C2.54462432 2.83848804 1.08559627 3.67063934 -0.375 4.5 C-1.18710938 4.9640625 -1.99921875 5.428125 -2.8359375 5.90625 C-5 7 -5 7 -7 7 C-7 17.89 -7 28.78 -7 40 C-8.98 40.495 -8.98 40.495 -11 41 C-10.67 29.78 -10.34 18.56 -10 7 C-11.98 6.34 -13.96 5.68 -16 5 C-16.66 4.34 -17.32 3.68 -18 3 C-16.25 2.375 -16.25 2.375 -14 2 C-13.360625 2.33 -12.72125 2.66 -12.0625 3 C-9.26316849 4.35725164 -7.93434853 3.93040319 -5 3 C-3.7315625 2.1646875 -3.7315625 2.1646875 -2.4375 1.3125 C-1.633125 0.879375 -0.82875 0.44625 0 0 Z " fill="#D2E5E4" transform="translate(87,63)"/>
<path d="M0 0 C1.41456928 4.24370785 -0.21946712 7.1199221 -2 11 C-5.00873538 16.3488629 -9.15072997 21.21630513 -14 25 C-16.75390625 25.73046875 -16.75390625 25.73046875 -19 26 C-19 26.66 -19 27.32 -19 28 C-21.31 27.67 -23.62 27.34 -26 27 C-23.38821053 25.25880702 -20.75160303 23.61750558 -18.0625 22 C-17.20785156 21.484375 -16.35320312 20.96875 -15.47265625 20.4375 C-13 19 -13 19 -10.80859375 18.0625 C-8.49385259 16.70265206 -8.04305176 15.44128062 -7 13 C-6.18049984 11.67881864 -5.3468411 10.36632547 -4.5 9.0625 C-2.6398131 6.1268068 -1.13537479 3.30290849 0 0 Z " fill="#2E6B77" transform="translate(116,82)"/>
<path d="M0 0 C1.47127305 1.94587727 2.92655144 3.89491872 4.32421875 5.89453125 C7.9775914 11.03437643 12.11323834 15.03105652 17 19 C16.01 19.33 15.02 19.66 14 20 C11.44140625 18.5234375 11.44140625 18.5234375 8.5625 16.375 C7.61503906 15.68148437 6.66757812 14.98796875 5.69140625 14.2734375 C1.85753281 11.03495515 -0.95959249 7.5909169 -3 3 C-2.01 2.01 -1.02 1.02 0 0 Z " fill="#2F9ECA" transform="translate(41,85)"/>
<path d="M0 0 C0 0.66 0 1.32 0 2 C2.31 2.33 4.62 2.66 7 3 C7 3.33 7 3.66 7 4 C5.96875 3.855625 4.9375 3.71125 3.875 3.5625 C-2.39218196 2.7706178 -8.69897659 2.41593834 -15 2 C-15 1.34 -15 0.68 -15 0 C-18.3 0 -21.6 0 -25 0 C-25 -0.33 -25 -0.66 -25 -1 C-16.63160767 -3.23157129 -8.27587268 -1.97212285 0 0 Z " fill="#1075A6" transform="translate(93,24)"/>
<path d="M0 0 C2.2477975 2.05233685 3.0022242 3.00667261 4 6 C3.35671283 7.34476907 2.68767751 8.67738068 2 10 C1.67831114 12.09563936 1.67831114 12.09563936 1.68115234 14.30957031 C1.66128265 15.15013977 1.64141296 15.99070923 1.62094116 16.85675049 C1.60938995 17.75480408 1.59783875 18.65285767 1.5859375 19.578125 C1.56657135 20.5046991 1.5472052 21.43127319 1.5272522 22.38592529 C1.46755233 25.34052371 1.42110932 28.29516129 1.375 31.25 C1.3368114 33.25522517 1.29775915 35.26043409 1.2578125 37.265625 C1.1618586 42.17695111 1.07779197 47.088354 1 52 C-0.81658904 48.8923809 -1.22950934 46.72135507 -1.13525391 43.13964844 C-1.11508209 42.17895447 -1.09491028 41.2182605 -1.0741272 40.22845459 C-1.04193085 39.19915833 -1.0097345 38.16986206 -0.9765625 37.109375 C-0.93902359 35.51974945 -0.93902359 35.51974945 -0.90072632 33.89801025 C-0.81859049 30.51501173 -0.72197498 27.13260252 -0.625 23.75 C-0.56675396 21.4557532 -0.50945082 19.16148225 -0.453125 16.8671875 C-0.3130212 11.24446574 -0.16102904 5.62215929 0 0 Z " fill="#62B56E" transform="translate(126,16)"/>
<path d="M0 0 C0.66 0.33 1.32 0.66 2 1 C1 4 1 4 -1.44140625 5.39453125 C-2.47136719 5.86246094 -3.50132813 6.33039062 -4.5625 6.8125 C-9.90035909 9.35707082 -14.45636758 12.23145781 -19 16 C-18.72920883 12.78709934 -17.94104033 11.94709218 -15.48828125 9.74609375 C-14.44027344 8.98425781 -13.39226563 8.22242188 -12.3125 7.4375 C-11.27738281 6.67308594 -10.24226563 5.90867187 -9.17578125 5.12109375 C-6.18235394 3.12179359 -3.31304964 1.40769062 0 0 Z " fill="#378C83" transform="translate(67,28)"/>
<path d="M0 0 C0.66 0.33 1.32 0.66 2 1 C-0.90882733 4.16326376 -3.78479699 6.21466613 -7.5625 8.25 C-8.51253906 8.77078125 -9.46257812 9.2915625 -10.44140625 9.828125 C-13 11 -13 11 -16 11 C-16 10.34 -16 9.68 -16 9 C-13.38029207 7.46935061 -10.75498357 5.95030252 -8.125 4.4375 C-7.37863281 3.99986328 -6.63226563 3.56222656 -5.86328125 3.11132812 C-5.14785156 2.70205078 -4.43242188 2.29277344 -3.6953125 1.87109375 C-3.03547363 1.48880615 -2.37563477 1.10651855 -1.69580078 0.71264648 C-1.13618652 0.47747314 -0.57657227 0.2422998 0 0 Z " fill="#E2F0E1" transform="translate(105,53)"/>
<path d="M0 0 C2.05078125 0.03255208 4.1015625 0.06510417 6.15234375 0.09765625 C6.48234375 1.08765625 6.81234375 2.07765625 7.15234375 3.09765625 C4.18234375 2.76765625 1.21234375 2.43765625 -1.84765625 2.09765625 C-1.84765625 8.03765625 -1.84765625 13.97765625 -1.84765625 20.09765625 C0.13234375 20.42765625 2.11234375 20.75765625 4.15234375 21.09765625 C1.14202631 22.0318927 0.28584107 22.14215536 -2.84765625 21.09765625 C-2.87653771 17.78517438 -2.89441424 14.47272458 -2.91015625 11.16015625 C-2.91853516 10.21462891 -2.92691406 9.26910156 -2.93554688 8.29492188 C-2.93876953 7.39580078 -2.94199219 6.49667969 -2.9453125 5.5703125 C-2.95054932 4.73765869 -2.95578613 3.90500488 -2.96118164 3.04711914 C-2.81098759 0.46798052 -2.58587118 0.13667395 0 0 Z " fill="#C8E7C4" transform="translate(135.84765625,40.90234375)"/>
<path d="M0 0 C1.41191619 4.23574857 -0.20780901 7.13033048 -2 11 C-4.14923047 14.62682642 -5.48656538 16.65771025 -9 19 C-9.66 18.34 -10.32 17.68 -11 17 C-10.34 17 -9.68 17 -9 17 C-8.7215625 16.42121094 -8.443125 15.84242187 -8.15625 15.24609375 C-7.04599126 13.08934113 -5.82053127 11.09563504 -4.5 9.0625 C-2.6398131 6.1268068 -1.13537479 3.30290849 0 0 Z " fill="#579B82" transform="translate(116,82)"/>
<path d="M0 0 C3.40312738 1.05875074 6.01353231 2.00902154 9 4 C9 5.32 9 6.64 9 8 C5.59687262 6.94124926 2.98646769 5.99097846 0 4 C0 2.68 0 1.36 0 0 Z " fill="#C7D6DB" transform="translate(52,82)"/>
<path d="M0 0 C0.66 0.33 1.32 0.66 2 1 C1.67 1.33 1.34 1.66 1 2 C0.95919217 3.99958364 0.95745644 6.00045254 1 8 C-1.76276177 7.47731534 -4.3260876 6.89130413 -7 6 C-7 5.34 -7 4.68 -7 4 C-1.7265625 0.77734375 -1.7265625 0.77734375 0 0 Z " fill="#3F909E" transform="translate(74,57)"/>
<path d="M0 0 C-2.40313638 2.51236985 -3.78319518 3.95013095 -7.3828125 4.09765625 C-8.28773437 4.08605469 -9.19265625 4.07445313 -10.125 4.0625 C-11.03507812 4.05347656 -11.94515625 4.04445313 -12.8828125 4.03515625 C-13.58148438 4.02355469 -14.28015625 4.01195313 -15 4 C-15 3.34 -15 2.68 -15 2 C-13.43883181 1.66048381 -11.87598662 1.32867456 -10.3125 1 C-9.44238281 0.814375 -8.57226562 0.62875 -7.67578125 0.4375 C-5.06287036 0.01027953 -2.64186962 -0.07616201 0 0 Z " fill="#125171" transform="translate(93,109)"/>
<path d="M0 0 C0.99 0.495 0.99 0.495 2 1 C2 5.29 2 9.58 2 14 C3.65 13.67 5.3 13.34 7 13 C4.59660228 15.76390737 3.83736322 16.04065919 0 17 C0 11.39 0 5.78 0 0 Z " fill="#2D6F81" transform="translate(80,86)"/>
<path d="M0 0 C2.35546875 0.83984375 2.35546875 0.83984375 4.35546875 2.83984375 C3.33453125 2.40671875 3.33453125 2.40671875 2.29296875 1.96484375 C-0.61708872 1.53503091 -0.61708872 1.53503091 -2.4296875 3.14453125 C-3.64525102 4.26460464 -4.83520559 5.41319692 -5.99609375 6.58984375 C-6.81207031 7.20859375 -6.81207031 7.20859375 -7.64453125 7.83984375 C-8.63453125 7.50984375 -9.62453125 7.17984375 -10.64453125 6.83984375 C-9.43301583 5.63434081 -8.19950236 4.45091628 -6.95703125 3.27734375 C-6.27253906 2.61605469 -5.58804688 1.95476563 -4.8828125 1.2734375 C-2.64453125 -0.16015625 -2.64453125 -0.16015625 0 0 Z " fill="#42ABCC" transform="translate(106.64453125,11.16015625)"/>
<path d="M0 0 C2.9375 1.25 2.9375 1.25 6 3 C6.875 5.1875 6.875 5.1875 7 7 C3.22454612 5.90931332 0.52956528 5.0916909 -2 2 C-1.34 2 -0.68 2 0 2 C0 1.34 0 0.68 0 0 Z " fill="#285C7E" transform="translate(52,86)"/>
<path d="M0 0 C3 3 3 3 4 6 C2.9451912 8.59645243 1.56357592 10.65463612 0 13 C0 8.71 0 4.42 0 0 Z " fill="#6EBA74" transform="translate(126,16)"/>
<path d="M0 0 C0.33 0.66 0.66 1.32 1 2 C0.06558465 3.27310312 -0.87267111 4.543388 -1.8125 5.8125 C-2.33457031 6.52019531 -2.85664062 7.22789063 -3.39453125 7.95703125 C-4.83128877 9.78531393 -6.31815763 11.39896688 -8 13 C-8.66 12.67 -9.32 12.34 -10 12 C-9.44570312 11.38511719 -8.89140625 10.77023438 -8.3203125 10.13671875 C-7.59585938 9.32847656 -6.87140625 8.52023438 -6.125 7.6875 C-5.40570313 6.88699219 -4.68640625 6.08648437 -3.9453125 5.26171875 C-1.88394498 2.95810917 -1.88394498 2.95810917 0 0 Z " fill="#439C73" transform="translate(119,93)"/>
<path d="M0 0 C3 3.75 3 3.75 3 6 C2.34 6 1.68 6 1 6 C0.67 6.99 0.34 7.98 0 9 C-0.99 7.02 -1.98 5.04 -3 3 C-2.01 2.01 -1.02 1.02 0 0 Z " fill="#2198C8" transform="translate(41,85)"/>
<path d="M0 0 C-1.29299694 2.88437779 -2.65941363 4.87219421 -5 7 C-5.66 6.67 -6.32 6.34 -7 6 C-7 5.01 -7 4.02 -7 3 C-4.46815512 0.64276511 -3.52809907 0 0 0 Z " fill="#418877" transform="translate(107,100)"/>
<path d="M0 0 C1.875 0.25 1.875 0.25 4 1 C5.25 3.0625 5.25 3.0625 6 5 C4.35 5 2.7 5 1 5 C0.67 3.35 0.34 1.7 0 0 Z " fill="#29A4D5" transform="translate(42,91)"/>
<path d="M0 0 C1.2065625 0.0309375 1.2065625 0.0309375 2.4375 0.0625 C1.79296875 0.45050781 1.1484375 0.83851562 0.484375 1.23828125 C-1.77128584 2.90196485 -1.77128584 2.90196485 -2.171875 5.54296875 C-2.21828125 6.43628906 -2.2646875 7.32960938 -2.3125 8.25 C-2.36921875 9.15105469 -2.4259375 10.05210938 -2.484375 10.98046875 C-2.52304688 12.01107422 -2.52304688 12.01107422 -2.5625 13.0625 C-2.8925 13.0625 -3.2225 13.0625 -3.5625 13.0625 C-3.58936553 11.08340602 -3.60883375 9.10421029 -3.625 7.125 C-3.63660156 6.02285156 -3.64820313 4.92070313 -3.66015625 3.78515625 C-3.52747618 0.086036 -3.52747618 0.086036 0 0 Z " fill="#2F5F7E" transform="translate(16.5625,62.9375)"/>
<path d="M0 0 C2.64 0.99 5.28 1.98 8 3 C6.375 4.1875 6.375 4.1875 4 5 C0.75 3.625 0.75 3.625 -2 2 C-1.34 1.34 -0.68 0.68 0 0 Z " fill="#C7D9DF" transform="translate(54,55)"/>
<path d="M0 0 C-7.71428571 4 -7.71428571 4 -12 4 C-11.67 3.01 -11.34 2.02 -11 1 C-7.27569643 0.30710631 -3.78916254 -0.11144596 0 0 Z " fill="#194A6C" transform="translate(37,105)"/>
<path d="M0 0 C0.66 0 1.32 0 2 0 C0.125 4.75 0.125 4.75 -1 7 C-1.99 7 -2.98 7 -4 7 C-2.79618552 4.50638429 -1.54571278 2.31856917 0 0 Z " fill="#249CC2" transform="translate(110,27)"/>
<path d="M0 0 C0.66 0.33 1.32 0.66 2 1 C1.67 1.99 1.34 2.98 1 4 C-2.0625 5.1875 -2.0625 5.1875 -5 6 C-3.63016497 2.83884224 -3.0109362 2.0072908 0 0 Z " fill="#3E9880" transform="translate(67,28)"/>
<path d="M0 0 C2.64 0 5.28 0 8 0 C8.33 0.99 8.66 1.98 9 3 C5.7 2.67 2.4 2.34 -1 2 C-0.67 1.34 -0.34 0.68 0 0 Z " fill="#86C583" transform="translate(134,41)"/>
<path d="M0 0 C-2.35968744 2.09749995 -3.54616994 2.96905704 -6.75 3.1875 C-7.86375 3.0946875 -7.86375 3.0946875 -9 3 C-5.83583464 -0.30799106 -4.50236011 -1.35070803 0 0 Z " fill="#54A3A0" transform="translate(81,38)"/>
<path d="M0 0 C0.99 0.33 1.98 0.66 3 1 C2.21654285 2.17219543 1.42297164 3.33763668 0.625 4.5 C0.18414063 5.1496875 -0.25671875 5.799375 -0.7109375 6.46875 C-1.13632812 6.9740625 -1.56171875 7.479375 -2 8 C-2.66 8 -3.32 8 -4 8 C-2.87548273 5.0280615 -1.77706209 2.66559313 0 0 Z " fill="#2C7599" transform="translate(25,32)"/>
<path d="M0 0 C-4.625 3 -4.625 3 -8 3 C-8 2.34 -8 1.68 -8 1 C-4.93251126 -0.86240388 -3.40254489 -1.2151946 0 0 Z " fill="#EAF4EC" transform="translate(97,61)"/>
</svg>
